<?xml version="1.0" encoding="UTF-8" standalone="no"?>
<!-- Created with Inkscape (http://www.inkscape.org/) -->

<svg
   width="136.65294mm"
   height="76.265007mm"
   viewBox="0 0 136.65294 76.265007"
   version="1.1"
   id="svg5"
   xml:space="preserve"
   xmlns="http://www.w3.org/2000/svg"
   xmlns:svg="http://www.w3.org/2000/svg"><defs
     id="defs2"><clipPath
       clipPathUnits="userSpaceOnUse"
       id="clipPath23"><path
         d="M 0,595.28 H 841.89 V 0 H 0 Z"
         id="path21" /></clipPath><clipPath
       clipPathUnits="userSpaceOnUse"
       id="clipPath273"><path
         d="m 228.613,333.556 c -2.242,-10.277 -1.197,-98.594 -0.388,-108.812 v 0 c 0.559,-7.509 3.724,-11.893 12.525,-11.719 v 0 c 61.408,0.988 77.515,75.414 39.586,110.441 v 0 c -6.073,5.601 -13.473,10.204 -22.381,13.331 v 0 c -4.475,1.58 -11.857,3.872 -18.153,3.872 v 0 c -5.396,0 -10.013,-1.713 -11.189,-7.113"
         id="path271" /></clipPath><linearGradient
       x1="0"
       y1="0"
       x2="1"
       y2="0"
       gradientUnits="userSpaceOnUse"
       gradientTransform="matrix(-75.915443,0.7237298,-0.7237298,-75.915443,301.1582,276.28027)"
       spreadMethod="pad"
       id="linearGradient287"><stop
         style="stop-opacity:1;stop-color:#f47920"
         offset="0"
         id="stop279" /><stop
         style="stop-opacity:1;stop-color:#f47920"
         offset="0.1"
         id="stop281" /><stop
         style="stop-opacity:1;stop-color:#f47920"
         offset="0.44066027"
         id="stop283" /><stop
         style="stop-opacity:1;stop-color:#c9242b"
         offset="1"
         id="stop285" /></linearGradient><clipPath
       clipPathUnits="userSpaceOnUse"
       id="clipPath297"><path
         d="m 303.682,403.53 c -2.025,-9.301 -1.061,-89.489 -0.356,-98.788 v 0 c 0.529,-6.797 3.385,-10.77 11.375,-10.654 v 0 c 55.768,0.931 70.418,68.508 35.977,100.302 v 0 c -5.514,5.078 -12.287,9.262 -20.309,12.089 v 0 c -4.078,1.452 -10.767,3.538 -16.488,3.538 v 0 c -4.942,0 -9.116,-1.599 -10.199,-6.487"
         id="path295" /></clipPath><linearGradient
       x1="0"
       y1="0"
       x2="1"
       y2="0"
       gradientUnits="userSpaceOnUse"
       gradientTransform="matrix(68.005943,-0.6482669,0.6482669,68.005943,302.62695,352.18652)"
       spreadMethod="pad"
       id="linearGradient307"><stop
         style="stop-opacity:1;stop-color:#15b1e7"
         offset="0"
         id="stop303" /><stop
         style="stop-opacity:1;stop-color:#0060af"
         offset="1"
         id="stop305" /></linearGradient><clipPath
       clipPathUnits="userSpaceOnUse"
       id="clipPath317"><path
         d="m 316.23,331.36 c -2.582,-11.715 -1.334,-112.454 -0.435,-124.138 v 0 c 0.689,-8.587 4.24,-13.535 14.271,-13.386 v 0 c 70.087,1.117 88.508,86.053 45.239,126.018 v 0 c -6.921,6.382 -15.453,11.647 -25.525,15.192 v 0 c -5.147,1.829 -13.571,4.436 -20.719,4.436 v 0 c -6.196,0 -11.483,-1.962 -12.831,-8.122"
         id="path315" /></clipPath><linearGradient
       x1="0"
       y1="0"
       x2="1"
       y2="0"
       gradientUnits="userSpaceOnUse"
       gradientTransform="matrix(100.41817,-0.9573798,0.9573798,100.41817,307.50195,266.84277)"
       spreadMethod="pad"
       id="linearGradient329"><stop
         style="stop-opacity:1;stop-color:#8cc63f"
         offset="0"
         id="stop323" /><stop
         style="stop-opacity:1;stop-color:#8cc63f"
         offset="0.37851141"
         id="stop325" /><stop
         style="stop-opacity:1;stop-color:#009559"
         offset="1"
         id="stop327" /></linearGradient><clipPath
       clipPathUnits="userSpaceOnUse"
       id="clipPath339"><path
         d="M 0,595.28 H 841.89 V 0 H 0 Z"
         id="path337" /></clipPath></defs><g
     id="layer1"
     transform="translate(-25.887014,-99.594097)"><g
       id="g15"
       transform="matrix(0.35277777,0,0,-0.35277777,-54.286008,244.23898)"><g
         id="g267"><g
           id="g269"
           clip-path="url(#clipPath273)"><g
             id="g275"><g
               id="g277"><path
                 d="m 228.613,333.556 c -2.242,-10.277 -1.197,-98.594 -0.388,-108.812 v 0 c 0.559,-7.509 3.724,-11.893 12.525,-11.719 v 0 c 61.408,0.988 77.515,75.414 39.586,110.441 v 0 c -6.073,5.601 -13.473,10.204 -22.381,13.331 v 0 c -4.475,1.58 -11.857,3.872 -18.153,3.872 v 0 c -5.396,0 -10.013,-1.713 -11.189,-7.113"
                 style="fill:url(#linearGradient287);stroke:none"
                 id="path289" /></g></g></g></g><g
         id="g291"><g
           id="g293"
           clip-path="url(#clipPath297)"><g
             id="g299"><g
               id="g301"><path
                 d="m 303.682,403.53 c -2.025,-9.301 -1.061,-89.489 -0.356,-98.788 v 0 c 0.529,-6.797 3.385,-10.77 11.375,-10.654 v 0 c 55.768,0.931 70.418,68.508 35.977,100.302 v 0 c -5.514,5.078 -12.287,9.262 -20.309,12.089 v 0 c -4.078,1.452 -10.767,3.538 -16.488,3.538 v 0 c -4.942,0 -9.116,-1.599 -10.199,-6.487"
                 style="fill:url(#linearGradient307);stroke:none"
                 id="path309" /></g></g></g></g><g
         id="g311"><g
           id="g313"
           clip-path="url(#clipPath317)"><g
             id="g319"><g
               id="g321"><path
                 d="m 316.23,331.36 c -2.582,-11.715 -1.334,-112.454 -0.435,-124.138 v 0 c 0.689,-8.587 4.24,-13.535 14.271,-13.386 v 0 c 70.087,1.117 88.508,86.053 45.239,126.018 v 0 c -6.921,6.382 -15.453,11.647 -25.525,15.192 v 0 c -5.147,1.829 -13.571,4.436 -20.719,4.436 v 0 c -6.196,0 -11.483,-1.962 -12.831,-8.122"
                 style="fill:url(#linearGradient329);stroke:none"
                 id="path331" /></g></g></g></g><g
         id="g333"><g
           id="g335"
           clip-path="url(#clipPath339)"><g
             id="g341"
             transform="translate(501.2344,291.0225)"><path
               d="M 0,0 C 0,-22.724 -15.092,-37.411 -37.758,-37.411 H -57.703 V 37.54 h 19.941 C -14.402,37.542 0,23.42 0,0 M -37.248,54.111 H -76.785 V -53.978 h 39.545 c 32.64,0 56.326,22.645 56.326,53.843 -0.006,32.452 -22.643,54.251 -56.334,54.246"
               style="fill:#00854a;fill-opacity:1;fill-rule:nonzero;stroke:none"
               id="path343" /></g><g
             id="g345"
             transform="translate(564.6328,300.7734)"><path
               d="m 0,0 c -3.496,-0.843 -5.615,-2.985 -6.164,-6.258 -0.426,-2.503 0.143,-5.135 1.512,-7.051 1.093,-1.526 2.611,-2.49 4.39,-2.782 2.467,-0.409 5.186,-0.533 8.069,-0.66 8.505,-0.377 17.521,-0.767 21.535,-8.309 2.383,-4.479 2.025,-10.307 -0.893,-14.509 -3.012,-4.357 -8.918,-6.987 -17.568,-7.494 -1.106,-0.065 -2.25,-0.098 -3.481,-0.098 l -24.064,-10e-4 -0.01,74.951 H 5.135 C 19.504,27.791 25.301,23.661 25.301,14.897 25.305,10.08 23.475,5.638 19.842,3.022 16.561,0.652 11.816,0.596 7.23,0.545 5.186,0.52 2.262,0.473 0,0 M 32.709,-7.788 C 39.752,-3 44.391,6.575 44.391,16.628 44.391,33.999 30.457,44.367 7.115,44.36 H -35.746 V -63.722 H 7.881 c 26.369,0 42.115,11.544 42.111,30.875 0,11.553 -5.66,19.766 -17.283,25.059"
               style="fill:#00854a;fill-opacity:1;fill-rule:nonzero;stroke:none"
               id="path347" /></g></g></g></g></g></svg>
