<svg xmlns="http://www.w3.org/2000/svg" viewBox="0 0 123.64 135.31">
  <g id="Layer_2" data-name="Layer 2">
    <g id="People_Avatar" data-name="People Avatar">
      <g>
        <g>
          <path d="M59.55,4c3.05-2,8.61-2.19,13.53-.33C78.65,5.81,83.4,10.3,86.91,14c3.21,3.36,7.22,10,7.93,13.07.56,2.43.94,5.67,1.31,8.81.15,1.29.3,2.56.45,3.75,1,7.8,1.9,13.07,2.64,16.11a31.51,31.51,0,0,1-.64,15.87,49.77,49.77,0,0,1-3.15,8.12A1.2,1.2,0,0,0,96,81.31a1.23,1.23,0,0,0,.52.12,1.2,1.2,0,0,0,1.08-.68,51.44,51.44,0,0,0,3.28-8.46,33.44,33.44,0,0,0,.68-17.15c-.71-2.91-1.58-8.25-2.59-15.86-.15-1.17-.3-2.43-.45-3.71a89.73,89.73,0,0,0-1.35-9.07c-.9-3.9-5.33-10.83-8.54-14.19C85,8.45,80,3.74,73.93,1.46c-5.69-2.15-12-1.91-15.72.59a1.2,1.2,0,0,0,1.34,2Z" fill="#fff"/>
          <path d="M21.39,82.06h.06a1.21,1.21,0,0,0,1.2-1.15,23.7,23.7,0,0,1,2.22-9,31.88,31.88,0,0,0,2.77-11.39c.08-.76.16-1.58.27-2.49.39-3.5,2.52-21.4,5.42-30.32S40.74,12.44,44,9.38c3.78-3.55,8.17-5.2,11.46-4.32a1.2,1.2,0,0,0,.62-2.32C52,1.65,46.74,3.52,42.36,7.63S33.62,19.1,31.05,27c-2.9,8.9-5,25.81-5.53,30.79-.1.92-.19,1.75-.27,2.52A29.21,29.21,0,0,1,22.66,71a26.18,26.18,0,0,0-2.41,9.82A1.2,1.2,0,0,0,21.39,82.06Z" fill="#fff"/>
          <path d="M54.73,37.5c3.85-4,10.11-12.87,11.54-18.15A1.2,1.2,0,0,0,64,18.72c-1.32,4.84-7.38,13.37-11,17.12-3.32,3.46-9.54,7-13,8.81a40.44,40.44,0,0,1,2.4-5.95,44.8,44.8,0,0,1,5.68-8.79c1-1.21,2-2.59,3.42-4.54a.9.9,0,0,0-.21-1.25.91.91,0,0,0-1.26.21c-1.34,1.91-2.42,3.27-3.36,4.46a46.83,46.83,0,0,0-5.87,9.09c-2.38,4.64-3.62,9.87-4.71,14.5-.57,2.4-1.11,4.67-1.72,6.41a73.51,73.51,0,0,1-6.8,14.51.9.9,0,0,0,.26,1.25,1,1,0,0,0,.49.14.91.91,0,0,0,.76-.41,75.6,75.6,0,0,0,7-14.89c.64-1.83,1.19-4.15,1.77-6.6,0-.16.08-.32.11-.47a20.47,20.47,0,0,0,2.34,3.49l.06.08a11.44,11.44,0,0,0,4,3.09h0c1.06,3.17,2.2,6.84,2.2,10.26,0,4.08-.65,6.43-2.18,7.85a1.2,1.2,0,0,0,0,1.7,1.18,1.18,0,0,0,.87.38,1.16,1.16,0,0,0,.82-.32C48.6,76.45,49,72.65,49,69.25a32.24,32.24,0,0,0-1.85-9.58,2.86,2.86,0,0,0,.42,0,1.2,1.2,0,1,0-.31-2.37c-1.09.14-3.65-1.17-5-2.85l-.06-.08a11.89,11.89,0,0,1-2.76-5,1.18,1.18,0,0,0-.55-.75l.2-.77a1.14,1.14,0,0,0,.26-.09c.83-.41,2.3-1.17,4-2.15a8.63,8.63,0,0,1,3.33,3.34.9.9,0,0,0,1.54-.94,11.44,11.44,0,0,0-3.09-3.43A66.49,66.49,0,0,0,51,40.68c-1.45,3.89-2.66,9.69-1.76,13.09a.9.9,0,0,0,.87.67l.23,0a.91.91,0,0,0,.64-1.1c-.89-3.36.78-10.19,2.36-13.6a.9.9,0,0,0-.06-.86C53.82,38.4,54.3,38,54.73,37.5Z" fill="#fff"/>
          <path d="M65.16,14.76a.92.92,0,0,0,.87.66.67.67,0,0,0,.24,0,.9.9,0,0,0,.63-1.11c-.8-2.8-3.66-6.86-5.21-7.83a.9.9,0,1,0-1,1.52C61.82,8.65,64.48,12.34,65.16,14.76Z" fill="#fff"/>
          <path d="M93.28,34.25a1.2,1.2,0,0,0,.14-2.4,35.64,35.64,0,0,1-9.15-2.49c-3.69-1.6-10.39-5.82-13-9.79a1.2,1.2,0,1,0-2,1.34c3.25,4.84,10.9,9.26,14.09,10.65l1.1.45a8,8,0,0,0-1.6.44.9.9,0,0,0,.35,1.73,1,1,0,0,0,.35-.07,15.69,15.69,0,0,1,4.65-.66.8.8,0,0,0,.4-.11,35,35,0,0,0,4.59.9Z" fill="#fff"/>
          <path d="M89.57,41.26a2.34,2.34,0,0,0-1.34-2.92A2.16,2.16,0,0,0,85.62,40,2.36,2.36,0,0,0,87,43,2.16,2.16,0,0,0,89.57,41.26Z" fill="#fff"/>
          <path d="M69.21,40.52a2.4,2.4,0,1,0,2.11,2.65A2.4,2.4,0,0,0,69.21,40.52Z" fill="#fff"/>
          <path d="M72.62,62.2a21,21,0,0,0,4.83.54c4.08,0,8.16-1,9.86-2.7A.9.9,0,1,0,86,58.76c-1.73,1.72-8.2,2.86-13,1.69a.9.9,0,1,0-.42,1.75Z" fill="#fff"/>
          <path d="M41.77,65.24c-.09.32-.18.66-.27,1-1,3.76-2.29,8.43-8.83,11.93a.9.9,0,0,0,.42,1.7,1,1,0,0,0,.43-.11c7.23-3.87,8.66-9.17,9.71-13,.1-.34.19-.67.28-1a.9.9,0,0,0-.62-1.11A.91.91,0,0,0,41.77,65.24Z" fill="#fff"/>
          <path d="M82.56,52.79a.87.87,0,0,0,.32-.06.89.89,0,0,0,.53-1.15,51.45,51.45,0,0,1-1.65-6.73.92.92,0,0,0-1.06-.71.88.88,0,0,0-.71,1,56.44,56.44,0,0,0,1.73,7A.9.9,0,0,0,82.56,52.79Z" fill="#fff"/>
          <path d="M72.93,34.88a.9.9,0,0,0-.71-1.06c-2.06-.41-7.06.39-9.54,1.53a.89.89,0,0,0-.44,1.19.88.88,0,0,0,.81.52.84.84,0,0,0,.38-.08c2.32-1.06,6.87-1.71,8.44-1.39A.9.9,0,0,0,72.93,34.88Z" fill="#fff"/>
        </g>
        <path d="M4.33,134.4c-.48-2.75-1-5.87-1.34-9.63-.59-6.77-.89-16.31-.16-21.24A20,20,0,0,1,7.6,92.61a23.76,23.76,0,0,1,9-5.81,44.22,44.22,0,0,1,9.27-2.39c.63-.11,1.53-.22,2.58-.34,4.38-.53,11-1.32,13.84-3.69a1.2,1.2,0,1,0-1.53-1.84c-2.3,1.91-8.74,2.68-12.59,3.14-1.08.13-2,.24-2.7.36a46.92,46.92,0,0,0-9.68,2.5A25.88,25.88,0,0,0,5.83,91,22.35,22.35,0,0,0,.45,103.18C-.31,108.3,0,118.07.6,125c.33,3.86.88,7,1.36,9.83l.09.5H4.48Z" fill="#fff"/>
        <path d="M59.67,133.86c2.08-3.83,4.22-7.8,5.52-10.45,1.44-2.93,4-9.19,4.64-13.47.65-4.11.24-11.83-1.16-15a62.24,62.24,0,0,0-4.28-8,13.71,13.71,0,0,1-2-5.42c-.32-1.56-1.21-4.26-1.87-6.23L60.11,74c-.26-.81-.55-1.6-.83-2.37a29.34,29.34,0,0,1-.93-2.8.9.9,0,0,1,.49-.75c.45-.27.95-.17,1.49.32a14.5,14.5,0,0,1,4,5.9,35,35,0,0,0,2.1,5.44,6.43,6.43,0,0,0,4.13,3.73A1.2,1.2,0,0,0,72,82.58a.15.15,0,0,0,0-.07c.44-.92.72-1.31,1.55-1.39a.9.9,0,1,0-.17-1.79A3.23,3.23,0,0,0,70.73,81a4.49,4.49,0,0,1-2.2-2.36,27.69,27.69,0,0,1-1.43-3.47A4.7,4.7,0,0,1,70,74.71c2.58.46,5.2,1.07,6.66,1.47l.08,0a1,1,0,0,0,.25.12,4.88,4.88,0,0,1,3.24,3.34,9.26,9.26,0,0,1,.41,2.49.9.9,0,0,0,1.8,0,10.87,10.87,0,0,0-.51-3.08,7.69,7.69,0,0,0-1.71-2.85,11,11,0,0,1,3.4.35,5.76,5.76,0,0,1,3,2.54,3.31,3.31,0,0,1,.39,2.2.9.9,0,0,0,.74,1l.15,0a.91.91,0,0,0,.89-.75,5.09,5.09,0,0,0-.56-3.3,7,7,0,0,0-2-2.32,6.2,6.2,0,0,1,3.12.62c1.17,1.07,1.63,1.57,1.77,2.52A19.08,19.08,0,0,1,91.28,82c0,.6,0,1.27.07,2.07a22.81,22.81,0,0,1-1,6.3,63.41,63.41,0,0,1-3.18,8,32.59,32.59,0,0,0-2,7.55c-.13.69-.24,1.31-.35,1.82-.46,2.08-1.6,6.17-2.29,8.25-.6,1.79-1,3.25-1.48,4.67-.39,1.24-.75,2.41-1.17,3.69C79,127,78,130.08,77,132.94c-.26.8-.51,1.6-.76,2.37H78.8c.17-.54.35-1.07.53-1.63.92-2.85,1.92-5.92,2.81-8.61.44-1.3.8-2.49,1.19-3.75s.88-2.84,1.47-4.61c.71-2.14,1.88-6.34,2.35-8.48.13-.56.24-1.22.37-1.93a30.18,30.18,0,0,1,1.86-7A67.38,67.38,0,0,0,92.67,91a24.93,24.93,0,0,0,1-6.07l1.88,0c2.52-.1,5.66-.22,7.94.55a14.38,14.38,0,0,1,7.7,5.68c3,4.69,4.93,11.88,6,17.07,1.15,5.46,2.82,17.92,3.48,23,.18,1.35.34,2.74.49,4.1h2.42c-.17-1.52-.35-3-.53-4.41-.67-5.13-2.34-17.66-3.51-23.2s-3.16-12.87-6.34-17.87a16.63,16.63,0,0,0-9-6.67c-2.7-.9-6.08-.77-8.79-.67-.65,0-1.26.05-1.8.05,0-.22,0-.43,0-.63a20.36,20.36,0,0,0-.21-3.14A6.37,6.37,0,0,0,91,74.84a5.93,5.93,0,0,0-3.23-1.16c1.18-2.33,2.33-5.12,3.54-8.05l.41-1A53.08,53.08,0,0,0,95,53.91a28,28,0,0,0-.22-11.57c-.2-.92-.33-2-.45-3s-.26-2.14-.46-3.11a1.2,1.2,0,0,0-1.43-.92,1.19,1.19,0,0,0-.92,1.42c.18.86.3,1.85.43,2.9s.26,2.21.48,3.24a25.46,25.46,0,0,1,.22,10.57A50.22,50.22,0,0,1,89.45,63.7l-.41,1c-1.38,3.34-2.69,6.5-4,8.89a15,15,0,0,0-2.48.34,1.24,1.24,0,0,0-.71.51c-.92,0-1.92,0-2.91,0-.66,0-1.32,0-1.93,0-1.51-.41-4.14-1-6.71-1.48a6.43,6.43,0,0,0-3.78.52,17,17,0,0,0-4.6-6.87A3.57,3.57,0,0,0,57.6,66a3.27,3.27,0,0,0-.76.62A18.76,18.76,0,0,1,54,61.79a1.21,1.21,0,0,0-1.58-.63,1.19,1.19,0,0,0-.63,1.57,21.14,21.14,0,0,0,4.18,6.53l.07.06s0,.06,0,.08a31.38,31.38,0,0,0,1,3c.28.75.56,1.52.8,2.28.12.38.28.85.45,1.37.64,1.92,1.51,4.54,1.8,6a16.07,16.07,0,0,0,2.33,6.28,59.6,59.6,0,0,1,4.08,7.57c.89,2,1.32,6.68,1.24,10.42-.82.33-1.84.27-4,0-3.43-.36-7.2-2.72-10.35-6.48-3.49-4.15-8.7-13.92-9.3-17.41a1.2,1.2,0,1,0-2.36.41c.72,4.26,6.33,14.38,9.82,18.55s7.9,6.89,11.94,7.32c1.08.11,2,.2,2.76.2a7.71,7.71,0,0,0,1.31-.11c0,.25-.06.49-.1.72-.59,3.8-2.94,9.77-4.43,12.79-1.27,2.6-3.41,6.55-5.47,10.36-.47.88-.94,1.74-1.4,2.59h2.73Z" fill="#fff"/>
        <path d="M34.88,127.12c-1.2-3.58-2.44-7.28-3.05-9.37-1.55-5.29-5.44-15-8.84-19a1.2,1.2,0,1,0-1.83,1.54c3,3.61,6.81,12.88,8.37,18.19.62,2.12,1.87,5.85,3.07,9.46.89,2.67,1.81,5.41,2.44,7.42h2.52C36.92,133.25,35.93,130.28,34.88,127.12Z" fill="#fff"/>
        <path d="M102.78,106.55a1.2,1.2,0,1,0-2.3-.7c-2.74,9-3.79,18-2.88,24.58a46.35,46.35,0,0,1,.36,4.88h2.4a50.13,50.13,0,0,0-.38-5.21C99.11,123.84,100.13,115.26,102.78,106.55Z" fill="#fff"/>
      </g>
    </g>
  </g>
</svg>
